<svg xmlns="http://www.w3.org/2000/svg" xmlns:xlink="http://www.w3.org/1999/xlink" contentStyleType="text/css" data-diagram-type="DESCRIPTION" height="725px" preserveAspectRatio="none" style="width:1022px;height:725px;background:#FFFFFF;" version="1.1" viewBox="0 0 1022 725" width="1022px" zoomAndPan="magnify"><title>Deployment View - Student Union Portal</title><defs/><g><g class="title" data-source-line="2"><text fill="#000000" font-family="Verdana" font-size="22" font-weight="bold" lengthAdjust="spacing" textLength="502.8955" x="255.1445" y="35.4209">Deployment View - Student Union Portal</text></g><!--cluster GitHub--><g class="cluster" data-entity="GitHub" data-source-line="6" data-uid="ent0003" id="cluster_GitHub"><polygon fill="#FFFFFF" points="791.9155,67.6094,801.9155,57.6094,967.9155,57.6094,967.9155,166.6094,957.9155,176.6094,791.9155,176.6094,791.9155,67.6094" style="stroke:#000000;stroke-width:1;"/><line style="stroke:#000000;stroke-width:1;" x1="957.9155" x2="967.9155" y1="67.6094" y2="57.6094"/><line style="stroke:#000000;stroke-width:1;" x1="791.9155" x2="957.9155" y1="67.6094" y2="67.6094"/><line style="stroke:#000000;stroke-width:1;" x1="957.9155" x2="957.9155" y1="67.6094" y2="176.6094"/><text fill="#000000" font-family="Verdana" font-size="14" font-weight="bold" lengthAdjust="spacing" textLength="54.6875" x="848.5718" y="83.6045">GitHub</text></g><!--cluster VPS (production host)--><g class="cluster" data-entity="VPS .production host." data-source-line="14" data-uid="ent0007" id="cluster_VPS .production host."><polygon fill="#FFFFFF" points="151.9155,264.1094,161.9155,254.1094,822.9155,254.1094,822.9155,698.1094,812.9155,708.1094,151.9155,708.1094,151.9155,264.1094" style="stroke:#000000;stroke-width:1;"/><line style="stroke:#000000;stroke-width:1;" x1="812.9155" x2="822.9155" y1="264.1094" y2="254.1094"/><line style="stroke:#000000;stroke-width:1;" x1="151.9155" x2="812.9155" y1="264.1094" y2="264.1094"/><line style="stroke:#000000;stroke-width:1;" x1="812.9155" x2="812.9155" y1="264.1094" y2="708.1094"/><text fill="#000000" font-family="Verdana" font-size="14" font-weight="bold" lengthAdjust="spacing" textLength="174.2412" x="396.2949" y="280.1045">VPS (production host)</text></g><!--cluster Docker Compose environment--><g class="cluster" data-entity="Docker Compose environment" data-source-line="15" data-uid="ent0008" id="cluster_Docker Compose environment"><polygon fill="#FFFFFF" points="175.9155,312.1094,185.9155,302.1094,798.9155,302.1094,798.9155,674.1094,788.9155,684.1094,175.9155,684.1094,175.9155,312.1094" style="stroke:#000000;stroke-width:1;"/><line style="stroke:#000000;stroke-width:1;" x1="788.9155" x2="798.9155" y1="312.1094" y2="302.1094"/><line style="stroke:#000000;stroke-width:1;" x1="175.9155" x2="788.9155" y1="312.1094" y2="312.1094"/><line style="stroke:#000000;stroke-width:1;" x1="788.9155" x2="788.9155" y1="312.1094" y2="684.1094"/><text fill="#000000" font-family="Verdana" font-size="14" font-weight="bold" lengthAdjust="spacing" textLength="237.5625" x="364.6343" y="328.1045">Docker Compose environment</text></g><!--entity CI--><g class="entity" data-entity="CI" data-source-line="7" data-uid="ent0004" id="entity_CI"><rect fill="#FFFFFF" height="62.5938" rx="2.5" ry="2.5" style="stroke:#000000;stroke-width:1;" width="144.3506" x="807.9155" y="97.6094"/><rect fill="#FFFFFF" height="10" style="stroke:#000000;stroke-width:1;" width="15" x="932.2661" y="102.6094"/><rect fill="#FFFFFF" height="2" style="stroke:#000000;stroke-width:1;" width="4" x="930.2661" y="104.6094"/><rect fill="#FFFFFF" height="2" style="stroke:#000000;stroke-width:1;" width="4" x="930.2661" y="108.6094"/><text fill="#000000" font-family="Verdana" font-size="14" lengthAdjust="spacing" textLength="104.3506" x="822.9155" y="130.6045">GitHub Actions</text><text fill="#000000" font-family="Verdana" font-size="14" lengthAdjust="spacing" textLength="50.1006" x="822.9155" y="146.9014">(CI/CD)</text></g><!--entity NGINX--><g class="entity" data-entity="NGINX" data-source-line="16" data-uid="ent0009" id="entity_NGINX"><polygon fill="#FFFFFF" points="193.9155,352.1094,203.9155,342.1094,473.9732,342.1094,473.9732,394.7031,463.9732,404.7031,193.9155,404.7031,193.9155,352.1094" style="stroke:#000000;stroke-width:1;"/><line style="stroke:#000000;stroke-width:1;" x1="463.9732" x2="473.9732" y1="352.1094" y2="342.1094"/><line style="stroke:#000000;stroke-width:1;" x1="193.9155" x2="463.9732" y1="352.1094" y2="352.1094"/><line style="stroke:#000000;stroke-width:1;" x1="463.9732" x2="463.9732" y1="352.1094" y2="404.7031"/><text fill="#000000" font-family="Verdana" font-size="14" lengthAdjust="spacing" textLength="38.8076" x="208.9155" y="375.1045">nginx</text><text fill="#000000" font-family="Verdana" font-size="14" lengthAdjust="spacing" textLength="58.3926" x="208.9155" y="391.4014">(reverse</text><text fill="#000000" font-family="Verdana" font-size="14" lengthAdjust="spacing" textLength="4.4502" x="267.3081" y="391.4014">&#160;</text><text fill="#000000" font-family="Verdana" font-size="14" lengthAdjust="spacing" textLength="39.7783" x="271.7583" y="391.4014">proxy</text><text fill="#000000" font-family="Verdana" font-size="14" lengthAdjust="spacing" textLength="4.4502" x="311.5366" y="391.4014">&#160;</text><text fill="#000000" font-family="Verdana" font-size="14" lengthAdjust="spacing" textLength="11.7305" x="315.9868" y="391.4014">+</text><text fill="#000000" font-family="Verdana" font-size="14" lengthAdjust="spacing" textLength="4.4502" x="327.7173" y="391.4014">&#160;</text><text fill="#000000" font-family="Verdana" font-size="14" lengthAdjust="spacing" textLength="25.2383" x="332.1675" y="391.4014">TLS</text><text fill="#000000" font-family="Verdana" font-size="14" lengthAdjust="spacing" textLength="4.4502" x="357.4058" y="391.4014">&#160;</text><text fill="#000000" font-family="Verdana" font-size="14" lengthAdjust="spacing" textLength="87.1172" x="361.856" y="391.4014">termination)</text></g><!--entity FEC--><g class="entity" data-entity="FEC" data-source-line="17" data-uid="ent0010" id="entity_FEC"><polygon fill="#FFFFFF" points="236.4155,492.1094,246.4155,482.1094,407.187,482.1094,407.187,534.7031,397.187,544.7031,236.4155,544.7031,236.4155,492.1094" style="stroke:#000000;stroke-width:1;"/><line style="stroke:#000000;stroke-width:1;" x1="397.187" x2="407.187" y1="492.1094" y2="482.1094"/><line style="stroke:#000000;stroke-width:1;" x1="236.4155" x2="397.187" y1="492.1094" y2="492.1094"/><line style="stroke:#000000;stroke-width:1;" x1="397.187" x2="397.187" y1="492.1094" y2="544.7031"/><text fill="#000000" font-family="Verdana" font-size="14" lengthAdjust="spacing" textLength="59.9854" x="251.4155" y="515.1045">frontend</text><text fill="#000000" font-family="Verdana" font-size="14" lengthAdjust="spacing" textLength="4.4502" x="311.4009" y="515.1045">&#160;</text><text fill="#000000" font-family="Verdana" font-size="14" lengthAdjust="spacing" textLength="66.3359" x="315.8511" y="515.1045">container</text><text fill="#000000" font-family="Verdana" font-size="14" lengthAdjust="spacing" textLength="43.9004" x="251.4155" y="531.4014">(static</text><text fill="#000000" font-family="Verdana" font-size="14" lengthAdjust="spacing" textLength="4.4502" x="295.3159" y="531.4014">&#160;</text><text fill="#000000" font-family="Verdana" font-size="14" lengthAdjust="spacing" textLength="39.8877" x="299.7661" y="531.4014">build)</text></g><!--entity BEC--><g class="entity" data-entity="BEC" data-source-line="18" data-uid="ent0011" id="entity_BEC"><polygon fill="#FFFFFF" points="442.4155,492.1094,452.4155,482.1094,617.4732,482.1094,617.4732,534.7031,607.4732,544.7031,442.4155,544.7031,442.4155,492.1094" style="stroke:#000000;stroke-width:1;"/><line style="stroke:#000000;stroke-width:1;" x1="607.4732" x2="617.4732" y1="492.1094" y2="482.1094"/><line style="stroke:#000000;stroke-width:1;" x1="442.4155" x2="607.4732" y1="492.1094" y2="492.1094"/><line style="stroke:#000000;stroke-width:1;" x1="607.4732" x2="607.4732" y1="492.1094" y2="544.7031"/><text fill="#000000" font-family="Verdana" font-size="14" lengthAdjust="spacing" textLength="59.6436" x="457.4155" y="515.1045">backend</text><text fill="#000000" font-family="Verdana" font-size="14" lengthAdjust="spacing" textLength="4.4502" x="517.0591" y="515.1045">&#160;</text><text fill="#000000" font-family="Verdana" font-size="14" lengthAdjust="spacing" textLength="66.3359" x="521.5093" y="515.1045">container</text><text fill="#000000" font-family="Verdana" font-size="14" lengthAdjust="spacing" textLength="57.0254" x="457.4155" y="531.4014">(FastAPI</text><text fill="#000000" font-family="Verdana" font-size="14" lengthAdjust="spacing" textLength="4.4502" x="514.4409" y="531.4014">&#160;</text><text fill="#000000" font-family="Verdana" font-size="14" lengthAdjust="spacing" textLength="11.7305" x="518.8911" y="531.4014">+</text><text fill="#000000" font-family="Verdana" font-size="14" lengthAdjust="spacing" textLength="4.4502" x="530.6216" y="531.4014">&#160;</text><text fill="#000000" font-family="Verdana" font-size="14" lengthAdjust="spacing" textLength="57.4014" x="535.0718" y="531.4014">uvicorn)</text></g><!--entity DBC--><g class="entity" data-entity="DBC" data-source-line="19" data-uid="ent0012" id="entity_DBC"><path d="M191.9155,632.6094 C191.9155,622.6094 277.6851,622.6094 277.6851,622.6094 C277.6851,622.6094 363.4546,622.6094 363.4546,632.6094 L363.4546,657.9063 C363.4546,667.9063 277.6851,667.9063 277.6851,667.9063 C277.6851,667.9063 191.9155,667.9063 191.9155,657.9063 L191.9155,632.6094" fill="#FFFFFF" style="stroke:#000000;stroke-width:1;"/><path d="M191.9155,632.6094 C191.9155,642.6094 277.6851,642.6094 277.6851,642.6094 C277.6851,642.6094 363.4546,642.6094 363.4546,632.6094" fill="none" style="stroke:#000000;stroke-width:1;"/><text fill="#000000" font-family="Verdana" font-size="14" lengthAdjust="spacing" textLength="151.5391" x="201.9155" y="659.6045">PostgreSQL container</text></g><!--entity THC--><g class="entity" data-entity="THC" data-source-line="20" data-uid="ent0013" id="entity_THC"><polygon fill="#FFFFFF" points="398.9155,632.1094,408.9155,622.1094,572.8452,622.1094,572.8452,658.4063,562.8452,668.4063,398.9155,668.4063,398.9155,632.1094" style="stroke:#000000;stroke-width:1;"/><line style="stroke:#000000;stroke-width:1;" x1="562.8452" x2="572.8452" y1="632.1094" y2="622.1094"/><line style="stroke:#000000;stroke-width:1;" x1="398.9155" x2="562.8452" y1="632.1094" y2="632.1094"/><line style="stroke:#000000;stroke-width:1;" x1="562.8452" x2="562.8452" y1="632.1094" y2="668.4063"/><text fill="#000000" font-family="Verdana" font-size="14" lengthAdjust="spacing" textLength="63.1436" x="413.9155" y="655.1045">Thumbor</text><text fill="#000000" font-family="Verdana" font-size="14" lengthAdjust="spacing" textLength="4.4502" x="477.0591" y="655.1045">&#160;</text><text fill="#000000" font-family="Verdana" font-size="14" lengthAdjust="spacing" textLength="66.3359" x="481.5093" y="655.1045">container</text></g><!--entity USER--><g class="entity" data-entity="USER" data-source-line="4" data-uid="ent0002" id="entity_USER"><ellipse cx="333.7119" cy="91.1094" fill="#FFFFFF" rx="8" ry="8" style="stroke:#000000;stroke-width:1;"/><path d="M333.7119,99.1094 L333.7119,126.1094 M320.7119,107.1094 L346.7119,107.1094 M333.7119,126.1094 L320.7119,141.1094 M333.7119,126.1094 L346.7119,141.1094" fill="none" style="stroke:#000000;stroke-width:1;"/><text fill="#000000" font-family="Verdana" font-size="14" lengthAdjust="spacing" textLength="113.5928" x="276.9155" y="156.1045">Student / Admin</text><text fill="#000000" font-family="Verdana" font-size="14" lengthAdjust="spacing" textLength="67.9629" x="276.9155" y="172.4014">(Browser)</text></g><!--entity GHCR--><g class="entity" data-entity="GHCR" data-source-line="10" data-uid="ent0005" id="entity_GHCR"><polygon fill="#FFFFFF" points="839.4155,360.6094,849.4155,350.6094,920.2945,350.6094,920.2945,386.9063,910.2945,396.9063,839.4155,396.9063,839.4155,360.6094" style="stroke:#000000;stroke-width:1;"/><line style="stroke:#000000;stroke-width:1;" x1="910.2945" x2="920.2945" y1="360.6094" y2="350.6094"/><line style="stroke:#000000;stroke-width:1;" x1="839.4155" x2="910.2945" y1="360.6094" y2="360.6094"/><line style="stroke:#000000;stroke-width:1;" x1="910.2945" x2="910.2945" y1="360.6094" y2="396.9063"/><text fill="#000000" font-family="Verdana" font-size="14" lengthAdjust="spacing" textLength="40.8789" x="854.4155" y="383.6045">GHCR</text></g><!--entity LE--><g class="entity" data-entity="LE" data-source-line="12" data-uid="ent0006" id="entity_LE"><path d="M23.4152,500.6575 C26.1994,494.1841 32.2214,494.7828 35.9023,499.6721 C38.642,492.8367 44.6308,492.0542 49.26,497.6401 C52.9317,491.9649 57.1756,491.4453 61.8948,496.3944 C66.2359,490.6126 71.7013,489.8539 76.0463,496.3898 C80.6807,490.7795 84.6011,491.883 87.5344,498.0492 C91.9608,490.2557 96.4486,490.333 101.6947,497.2607 C106.8222,491.9746 110.9277,492.5571 114.1139,499.27 C119.0331,493.2699 124.6067,494.2537 128.4306,500.5457 C137.1494,502.9665 138.0526,508.3019 132.3225,514.6966 C138.4443,520.9239 137.141,527.9968 127.9722,529.8281 C123.8191,536.8934 119.5207,536.3615 114.7732,530.4318 C112.1182,538.2384 107.4759,538.219 102.0965,533.1046 C98.9832,540.1062 92.4927,539.8259 88.9668,533.5115 C86.076,540.0221 79.4415,541.4256 74.6284,535.7786 C68.9603,540.1344 64.5401,540.4113 61.8903,532.6148 C58.3181,538.1991 52.3885,537.3551 49.6242,531.7306 C45.6506,537.4418 38.929,536.7202 35.8248,530.7073 C31.2462,536.5507 25.9186,537.2228 21.8814,530.124 C12.3896,528.8686 11,521.1847 16.5497,514.7223 C11.023,507.4801 13.9397,500.5767 23.4152,500.6575" fill="#FFFFFF" style="stroke:#000000;stroke-width:1;"/><text fill="#000000" font-family="Verdana" font-size="14" lengthAdjust="spacing" textLength="91.3281" x="28.4155" y="518.6045">Let's Encrypt</text></g><!--link CI to GHCR--><g class="link" data-entity-1="CI" data-entity-2="GHCR" data-source-line="24" data-uid="lnk14" id="link_CI_GHCR"><path d="M879.9155,160.8194 C879.9155,210.3994 879.9155,300.8994 879.9155,344.3994" fill="none" id="CI-to-GHCR" style="stroke:#000000;stroke-width:1;"/><polygon fill="#000000" points="879.9155,350.3994,883.9155,341.3994,879.9155,345.3994,875.9155,341.3994,879.9155,350.3994" style="stroke:#000000;stroke-width:1;"/><text fill="#000000" font-family="Verdana" font-size="13" lengthAdjust="spacing" textLength="133.269" x="880.9155" y="219.1763">build &amp; push images</text><text fill="#000000" font-family="Verdana" font-size="13" lengthAdjust="spacing" textLength="115.7686" x="889.6658" y="234.3091">(on push to main)</text></g><!--link GHCR to FEC--><g class="link" data-entity-1="GHCR" data-entity-2="FEC" data-source-line="25" data-uid="lnk15" id="link_GHCR_FEC"><path d="M839.1255,391.3894 C826.3955,396.2494 812.1955,401.2694 798.9155,405.1094 C635.8955,452.2694 589.5355,440.8694 424.9155,482.1094 C419.2155,483.5394 419.1557,483.5065 413.2657,485.1065" fill="none" id="GHCR-to-FEC" style="stroke:#000000;stroke-width:1;"/><polygon fill="#000000" points="407.4755,486.6794,417.2094,488.1802,412.3007,485.3686,415.1122,480.4599,407.4755,486.6794" style="stroke:#000000;stroke-width:1;"/><text fill="#000000" font-family="Verdana" font-size="13" lengthAdjust="spacing" textLength="108.1831" x="670.9155" y="448.1763">pulled on deploy</text></g><!--link GHCR to BEC--><g class="link" data-entity-1="GHCR" data-entity-2="BEC" data-source-line="26" data-uid="lnk16" id="link_GHCR_BEC"><path d="M864.0555,396.7694 C850.1855,414.4694 828.4755,438.4894 803.9155,452.1094 C746.5055,483.9394 679.5675,498.2616 623.4075,505.4116" fill="none" id="GHCR-to-BEC" style="stroke:#000000;stroke-width:1;"/><polygon fill="#000000" points="617.4555,506.1694,626.8887,509.0007,622.4155,505.5379,625.8783,501.0647,617.4555,506.1694" style="stroke:#000000;stroke-width:1;"/><text fill="#000000" font-family="Verdana" font-size="13" lengthAdjust="spacing" textLength="108.1831" x="825.9155" y="448.1763">pulled on deploy</text></g><!--link USER to NGINX--><g class="link" data-entity-1="USER" data-entity-2="NGINX" data-source-line="28" data-uid="lnk17" id="link_USER_NGINX"><path d="M333.9155,176.2894 C333.9155,224.9394 333.9155,294.1694 333.9155,335.9594" fill="none" id="USER-to-NGINX" style="stroke:#000000;stroke-width:1;"/><polygon fill="#000000" points="333.9155,341.9594,337.9155,332.9594,333.9155,336.9594,329.9155,332.9594,333.9155,341.9594" style="stroke:#000000;stroke-width:1;"/><text fill="#000000" font-family="Verdana" font-size="13" lengthAdjust="spacing" textLength="80.8374" x="334.9155" y="226.6763">HTTPS (443)</text></g><!--link NGINX to FEC--><g class="link" data-entity-1="NGINX" data-entity-2="FEC" data-source-line="29" data-uid="lnk18" id="link_NGINX_FEC"><path d="M331.2555,405.2394 C329.2655,428.1094 327.0735,453.2418 325.0935,476.0918" fill="none" id="NGINX-to-FEC" style="stroke:#000000;stroke-width:1;"/><polygon fill="#000000" points="324.5755,482.0694,329.3376,473.4483,325.0072,477.088,321.3674,472.7577,324.5755,482.0694" style="stroke:#000000;stroke-width:1;"/><text fill="#000000" font-family="Verdana" font-size="13" lengthAdjust="spacing" textLength="121.145" x="328.9155" y="448.1763">serve static assets</text></g><!--link NGINX to BEC--><g class="link" data-entity-1="NGINX" data-entity-2="BEC" data-source-line="30" data-uid="lnk19" id="link_NGINX_BEC"><path d="M408.9655,405.2294 C426.1055,413.7494 443.7355,423.8094 458.9155,435.1094 C476.7755,448.3994 489.8941,462.0203 502.7541,477.4503" fill="none" id="NGINX-to-BEC" style="stroke:#000000;stroke-width:1;"/><polygon fill="#000000" points="506.5955,482.0594,503.9062,472.5848,503.3944,478.2185,497.7607,477.7067,506.5955,482.0594" style="stroke:#000000;stroke-width:1;"/><text fill="#000000" font-family="Verdana" font-size="13" lengthAdjust="spacing" textLength="82.6592" x="478.9155" y="448.1763">proxy /api/**</text></g><!--link BEC to DBC--><g class="link" data-entity-1="BEC" data-entity-2="DBC" data-source-line="31" data-uid="lnk20" id="link_BEC_DBC"><path d="M442.3855,540.5594 C436.4855,542.1494 430.6255,543.6794 424.9155,545.1094 C362.3455,560.7794 325.3255,526.5094 282.9155,575.1094 C271.7855,587.8694 270.6445,601.5566 272.5445,616.6166" fill="none" id="BEC-to-DBC" style="stroke:#000000;stroke-width:1;"/><polygon fill="#000000" points="273.2955,622.5694,276.1376,613.1395,272.6697,617.6087,268.2005,614.1408,273.2955,622.5694" style="stroke:#000000;stroke-width:1;"/><text fill="#000000" font-family="Verdana" font-size="13" lengthAdjust="spacing" textLength="211.8403" x="283.9155" y="588.1763">SQL (internal Compose network)</text></g><!--link BEC to THC--><g class="link" data-entity-1="BEC" data-entity-2="THC" data-source-line="32" data-uid="lnk21" id="link_BEC_THC"><path d="M519.4855,545.2994 C511.5055,568.7894 502.6152,594.9481 495.4452,616.0581" fill="none" id="BEC-to-THC" style="stroke:#000000;stroke-width:1;"/><polygon fill="#000000" points="493.5155,621.7394,500.1975,614.5039,495.1236,617.005,492.6225,611.9311,493.5155,621.7394" style="stroke:#000000;stroke-width:1;"/><text fill="#000000" font-family="Verdana" font-size="13" lengthAdjust="spacing" textLength="301.082" x="509.9155" y="588.1763">image processing (internal Compose network)</text></g><!--link NGINX to LE--><g class="link" data-entity-1="NGINX" data-entity-2="LE" data-source-line="33" data-uid="lnk22" id="link_NGINX_LE"><path d="M193.7155,386.8294 C159.2455,395.8194 124.8355,410.6994 98.9155,435.1094 C83.6855,449.4494 78.5014,467.1724 76.1714,484.5824" fill="none" id="NGINX-to-LE" style="stroke:#000000;stroke-width:1;stroke-dasharray:7,7;"/><polygon fill="#000000" points="75.3755,490.5294,80.534,482.1395,76.0388,485.5736,72.6047,481.0783,75.3755,490.5294" style="stroke:#000000;stroke-width:1;"/><text fill="#000000" font-family="Verdana" font-size="13" lengthAdjust="spacing" textLength="218.48" x="99.9155" y="448.1763">TLS certificate issuance / renewal</text></g><!--SRC=[VPDDRnen48Rl_XNJFRHiAiAXEVKG2HOILa8H3IJgeHTZJy3AhhsoPo6eod_ls0iKeget6B_FVBmp-uasM2CqbJHMaA4AOOnDvVOrMe9dWplemu9Q7Vy-MUCip9qdMGaX5JaFsV5n04DT6_lBzaRUxGBwF0CPu6anUHJ2EesGtHkQjgiCVWi0vUh6sGWUmZ1KnEa39oZAGJ7kyA8KxoTyMZocOFmXXAfSgo6R8Nq9CB7AxnjApxF9aNYUBw3NUAVRb1isBb3UrUy4OwTUqKCHcma8QBV6EnjdxrH7dLqR-yQTUToYPo7dVDl3LrZE5a3eUMuP2tGzFzoN3p_Fu1TEIMWrpso9VKRFcG8neM3LcaftsDsaE8DMaZlxmDp9GCDvoNNRhL7E7-gD3g2M95UIkylcFEVQu-B7x2-VfEFHUOtbfgrNlCDBpN8QDU_HzwA4ldOxsxzDdiFthb_u34qRDc1gkSQuCBOs1SX1pOboaTH7b0TZicch2ZMmLAS3kzIC_gqHyNnEecGiowRBPLpipSstN7Inor9yV5k4WyCo1AJmGNSebxOua8qPN5s963k-iq_y7lth6TwTjx8w7Ob5sZd_cby0R1e3oP2OLc48ngx_HtSDNL_Vyhqo6Yz9eIVpOfGa11D2Awr2_guyMjpn5_S7]--></g></svg>