<svg xmlns="http://www.w3.org/2000/svg" xmlns:xlink="http://www.w3.org/1999/xlink" contentStyleType="text/css" data-diagram-type="DESCRIPTION" height="864px" preserveAspectRatio="none" style="width:999px;height:864px;background:#FFFFFF;" version="1.1" viewBox="0 0 999 864" width="999px" zoomAndPan="magnify"><title>Student Union Portal - Component Diagram (Static View)</title><defs/><g><g class="title" data-source-line="2"><text fill="#000000" font-family="Verdana" font-size="22" font-weight="bold" lengthAdjust="spacing" textLength="707.502" x="141.249" y="35.4209">Student Union Portal - Component Diagram (Static View)</text></g><!--cluster Student Union Portal--><g class="cluster" data-entity="Student Union Portal" data-source-line="7" data-uid="ent0004" id="cluster_Student Union Portal"><path d="M13.5,336.0012 L180.6064,336.0012 A3.75,3.75 0 0 1 183.1064,338.5012 L190.1064,358.2981 L989.5,358.2981 A2.5,2.5 0 0 1 992,360.7981 L992,727.5012 A2.5,2.5 0 0 1 989.5,730.0012 L13.5,730.0012 A2.5,2.5 0 0 1 11,727.5012 L11,338.5012 A2.5,2.5 0 0 1 13.5,336.0012" fill="#FFFFFF" style="stroke:#000000;stroke-width:1;"/><line style="stroke:#000000;stroke-width:1;" x1="11" x2="190.1064" y1="358.2981" y2="358.2981"/><text fill="#000000" font-family="Verdana" font-size="14" font-weight="bold" lengthAdjust="spacing" textLength="166.1064" x="15" y="350.9964">Student Union Portal</text></g><!--entity FE--><g class="entity" data-entity="FE" data-source-line="8" data-uid="ent0005" id="entity_FE"><rect fill="#FFFFFF" height="62.5938" rx="2.5" ry="2.5" style="stroke:#000000;stroke-width:1;" width="234.8037" x="253.5" y="371.0012"/><rect fill="#FFFFFF" height="10" style="stroke:#000000;stroke-width:1;" width="15" x="468.3037" y="376.0012"/><rect fill="#FFFFFF" height="2" style="stroke:#000000;stroke-width:1;" width="4" x="466.3037" y="378.0012"/><rect fill="#FFFFFF" height="2" style="stroke:#000000;stroke-width:1;" width="4" x="466.3037" y="382.0012"/><text fill="#000000" font-family="Verdana" font-size="14" lengthAdjust="spacing" textLength="94.4658" x="268.5" y="403.9964">Frontend SPA</text><text fill="#000000" font-family="Verdana" font-size="14" lengthAdjust="spacing" textLength="194.8037" x="268.5" y="420.2932">(React + TypeScript + Vite)</text></g><!--entity API--><g class="entity" data-entity="API" data-source-line="9" data-uid="ent0006" id="entity_API"><rect fill="#FFFFFF" height="62.5938" rx="2.5" ry="2.5" style="stroke:#000000;stroke-width:1;" width="126.96" x="460.5" y="511.0012"/><rect fill="#FFFFFF" height="10" style="stroke:#000000;stroke-width:1;" width="15" x="567.46" y="516.0012"/><rect fill="#FFFFFF" height="2" style="stroke:#000000;stroke-width:1;" width="4" x="565.46" y="518.0012"/><rect fill="#FFFFFF" height="2" style="stroke:#000000;stroke-width:1;" width="4" x="565.46" y="522.0012"/><text fill="#000000" font-family="Verdana" font-size="14" lengthAdjust="spacing" textLength="86.96" x="475.5" y="543.9964">Backend API</text><text fill="#000000" font-family="Verdana" font-size="14" lengthAdjust="spacing" textLength="62.4873" x="475.5" y="560.2932">(FastAPI)</text></g><!--entity AUTH--><g class="entity" data-entity="AUTH" data-source-line="10" data-uid="ent0007" id="entity_AUTH"><rect fill="#FFFFFF" height="62.5938" rx="2.5" ry="2.5" style="stroke:#000000;stroke-width:1;" width="170.8535" x="27.5" y="651.0012"/><rect fill="#FFFFFF" height="10" style="stroke:#000000;stroke-width:1;" width="15" x="178.3535" y="656.0012"/><rect fill="#FFFFFF" height="2" style="stroke:#000000;stroke-width:1;" width="4" x="176.3535" y="658.0012"/><rect fill="#FFFFFF" height="2" style="stroke:#000000;stroke-width:1;" width="4" x="176.3535" y="662.0012"/><text fill="#000000" font-family="Verdana" font-size="14" lengthAdjust="spacing" textLength="88.1699" x="42.5" y="683.9964">Auth Module</text><text fill="#000000" font-family="Verdana" font-size="14" lengthAdjust="spacing" textLength="130.8535" x="42.5" y="700.2932">(JWT, app/auth.py)</text></g><!--entity EVR--><g class="entity" data-entity="EVR" data-source-line="11" data-uid="ent0008" id="entity_EVR"><rect fill="#FFFFFF" height="46.2969" rx="2.5" ry="2.5" style="stroke:#000000;stroke-width:1;" width="138.875" x="657.5" y="659.5012"/><rect fill="#FFFFFF" height="10" style="stroke:#000000;stroke-width:1;" width="15" x="776.375" y="664.5012"/><rect fill="#FFFFFF" height="2" style="stroke:#000000;stroke-width:1;" width="4" x="774.375" y="666.5012"/><rect fill="#FFFFFF" height="2" style="stroke:#000000;stroke-width:1;" width="4" x="774.375" y="670.5012"/><text fill="#000000" font-family="Verdana" font-size="14" lengthAdjust="spacing" textLength="98.875" x="672.5" y="692.4964">Events Router</text></g><!--entity MEM--><g class="entity" data-entity="MEM" data-source-line="12" data-uid="ent0009" id="entity_MEM"><rect fill="#FFFFFF" height="46.2969" rx="2.5" ry="2.5" style="stroke:#000000;stroke-width:1;" width="156.3545" x="234" y="659.5012"/><rect fill="#FFFFFF" height="10" style="stroke:#000000;stroke-width:1;" width="15" x="370.3545" y="664.5012"/><rect fill="#FFFFFF" height="2" style="stroke:#000000;stroke-width:1;" width="4" x="368.3545" y="666.5012"/><rect fill="#FFFFFF" height="2" style="stroke:#000000;stroke-width:1;" width="4" x="368.3545" y="670.5012"/><text fill="#000000" font-family="Verdana" font-size="14" lengthAdjust="spacing" textLength="116.3545" x="249" y="692.4964">Members Router</text></g><!--entity KAN--><g class="entity" data-entity="KAN" data-source-line="13" data-uid="ent0010" id="entity_KAN"><rect fill="#FFFFFF" height="46.2969" rx="2.5" ry="2.5" style="stroke:#000000;stroke-width:1;" width="144.4463" x="832" y="659.5012"/><rect fill="#FFFFFF" height="10" style="stroke:#000000;stroke-width:1;" width="15" x="956.4463" y="664.5012"/><rect fill="#FFFFFF" height="2" style="stroke:#000000;stroke-width:1;" width="4" x="954.4463" y="666.5012"/><rect fill="#FFFFFF" height="2" style="stroke:#000000;stroke-width:1;" width="4" x="954.4463" y="670.5012"/><text fill="#000000" font-family="Verdana" font-size="14" lengthAdjust="spacing" textLength="104.4463" x="847" y="692.4964">Kanban Router</text></g><!--entity QST--><g class="entity" data-entity="QST" data-source-line="14" data-uid="ent0011" id="entity_QST"><rect fill="#FFFFFF" height="46.2969" rx="2.5" ry="2.5" style="stroke:#000000;stroke-width:1;" width="197.0967" x="425.5" y="659.5012"/><rect fill="#FFFFFF" height="10" style="stroke:#000000;stroke-width:1;" width="15" x="602.5967" y="664.5012"/><rect fill="#FFFFFF" height="2" style="stroke:#000000;stroke-width:1;" width="4" x="600.5967" y="666.5012"/><rect fill="#FFFFFF" height="2" style="stroke:#000000;stroke-width:1;" width="4" x="600.5967" y="670.5012"/><text fill="#000000" font-family="Verdana" font-size="14" lengthAdjust="spacing" textLength="157.0967" x="440.5" y="692.4964">Questionnaires Router</text></g><!--entity Student--><g class="entity" data-entity="Student" data-source-line="4" data-uid="ent0002" id="entity_Student"><ellipse cx="329.0557" cy="205.0012" fill="#FFFFFF" rx="8" ry="8" style="stroke:#000000;stroke-width:1;"/><path d="M329.0557,213.0012 L329.0557,240.0012 M316.0557,221.0012 L342.0557,221.0012 M329.0557,240.0012 L316.0557,255.0012 M329.0557,240.0012 L342.0557,255.0012" fill="none" style="stroke:#000000;stroke-width:1;"/><text fill="#000000" font-family="Verdana" font-size="14" lengthAdjust="spacing" textLength="55.1113" x="301.5" y="269.9964">Student</text></g><!--entity Admin--><g class="entity" data-entity="Admin" data-source-line="5" data-uid="ent0003" id="entity_Admin"><ellipse cx="243.9321" cy="205.0012" fill="#FFFFFF" rx="8" ry="8" style="stroke:#000000;stroke-width:1;"/><path d="M243.9321,213.0012 L243.9321,240.0012 M230.9321,221.0012 L256.9321,221.0012 M243.9321,240.0012 L230.9321,255.0012 M243.9321,240.0012 L256.9321,255.0012" fill="none" style="stroke:#000000;stroke-width:1;"/><text fill="#000000" font-family="Verdana" font-size="14" lengthAdjust="spacing" textLength="44.8643" x="221.5" y="269.9964">Admin</text></g><!--entity DB--><g class="entity" data-entity="DB" data-source-line="17" data-uid="ent0012" id="entity_DB"><path d="M608.5,812.0012 C608.5,802.0012 658.8765,802.0012 658.8765,802.0012 C658.8765,802.0012 709.2529,802.0012 709.2529,812.0012 L709.2529,837.2981 C709.2529,847.2981 658.8765,847.2981 658.8765,847.2981 C658.8765,847.2981 608.5,847.2981 608.5,837.2981 L608.5,812.0012" fill="#FFFFFF" style="stroke:#000000;stroke-width:1;"/><path d="M608.5,812.0012 C608.5,822.0012 658.8765,822.0012 658.8765,822.0012 C658.8765,822.0012 709.2529,822.0012 709.2529,812.0012" fill="none" style="stroke:#000000;stroke-width:1;"/><text fill="#000000" font-family="Verdana" font-size="14" lengthAdjust="spacing" textLength="80.7529" x="618.5" y="838.9964">PostgreSQL</text></g><!--entity THUMBOR--><g class="entity" data-entity="THUMBOR" data-source-line="18" data-uid="ent0013" id="entity_THUMBOR"><rect fill="#FFFFFF" height="62.5938" rx="2.5" ry="2.5" style="stroke:#000000;stroke-width:1;" width="229.335" x="56.5" y="793.0012"/><rect fill="#FFFFFF" height="10" style="stroke:#000000;stroke-width:1;" width="15" x="265.835" y="798.0012"/><rect fill="#FFFFFF" height="2" style="stroke:#000000;stroke-width:1;" width="4" x="263.835" y="800.0012"/><rect fill="#FFFFFF" height="2" style="stroke:#000000;stroke-width:1;" width="4" x="263.835" y="804.0012"/><text fill="#000000" font-family="Verdana" font-size="14" lengthAdjust="spacing" textLength="63.1436" x="71.5" y="825.9964">Thumbor</text><text fill="#000000" font-family="Verdana" font-size="14" lengthAdjust="spacing" textLength="189.335" x="71.5" y="842.2932">(image processing service)</text></g><!--entity CI--><g class="entity" data-entity="CI" data-source-line="19" data-uid="ent0014" id="entity_CI"><path d="M509.3139,65.4512 C512.9246,59.3017 517.955,59.5277 521.991,64.9869 C525.6682,60.4561 530.272,60.4405 533.5456,65.4744 C536.2653,58.6818 540.4504,58.8878 544.9728,63.6991 C548.3816,58.9533 552.1875,58.9589 555.8012,63.459 C560.2043,58.1059 564.682,57.9365 568.9926,63.5702 C573.4516,57.931 577.4708,58.3753 580.5579,64.8771 C584.2817,60.481 587.8768,59.403 591.3067,65.1874 C594.0109,57.8855 600.3137,57.6094 604.6206,63.5797 C607.7797,59.7599 612.0708,60.0638 614.599,64.3557 C618.4569,58.6996 624.9459,58.8213 627.9077,65.3357 C633.2304,67.6975 633.931,72.3723 630.0787,76.5159 C636.7773,78.8294 638.5111,84.6937 632.2557,89.226 C635.7896,93.4912 634.945,98.5855 629.0641,100.0832 C634.2191,103.9922 632.7669,108.1156 627.626,110.6194 C625.5187,116.8645 620.0999,116.7338 616.559,112.0744 C612.0156,117.5118 607.7629,117.9819 603.3707,111.9013 C600.3389,117.2203 594.5584,116.9655 591.4329,112.0103 C588.5295,117.8132 583.3615,117.4867 580.2128,112.2598 C576.1052,119.2488 572.0094,118.4588 567.3805,112.7882 C564.4745,118.2016 560.4511,118.7118 556.3602,114.0894 C551.8332,118.9984 546.1741,118.3891 543.548,111.9443 C540.1575,117.5448 534.9874,118.0265 531.8859,111.6626 C529.401,116.9722 524.1085,118.5389 520.6102,112.6863 C516.605,118.645 512.9049,117.9863 509.2351,112.357 C503.4665,109.7927 502.5694,103.6532 507.4009,99.5686 C501.3335,96.0787 502.2055,92.3861 506.9236,88.4339 C501.8426,83.9414 502.0257,79.0064 508.2289,75.6676 C503.1043,71.9952 503.6114,67.9739 509.3139,65.4512" fill="#FFFFFF" style="stroke:#000000;stroke-width:1;"/><text fill="#000000" font-family="Verdana" font-size="14" lengthAdjust="spacing" textLength="104.3506" x="515" y="83.9964">GitHub Actions</text><text fill="#000000" font-family="Verdana" font-size="14" lengthAdjust="spacing" textLength="50.1006" x="515" y="100.2932">(CI/CD)</text></g><!--entity GHCR--><g class="entity" data-entity="GHCR" data-source-line="20" data-uid="ent0015" id="entity_GHCR"><path d="M469.2938,211.4974 C473.9974,206.1448 479.4382,205.7223 483.0707,212.6947 C487.4908,205.1034 492.9462,205.4402 497.6508,212.4099 C501.3003,206.2587 507.312,206.3168 511.0321,212.3322 C513.8114,204.5522 520.2525,204.0654 524.7555,210.69 C529.2717,203.7506 534.0815,203.1155 539.3142,209.9317 C544.0551,203.8237 551.2835,203.7433 554.807,211.3108 C558.8389,204.5838 563.8468,205.1768 568.2607,210.8979 C571.6884,203.3481 577.8658,202.2942 582.7314,209.4863 C587.847,203.3228 592.6402,202.7601 596.7807,210.4735 C602.2443,203.0024 606.6652,203.5707 611.016,211.5019 C615.1035,204.7892 619.7042,205.6914 624.2731,210.9697 C628.7995,203.9028 635.2472,203.369 639.6965,211.0503 C644.5541,204.9856 649.8184,205.8308 652.7998,212.9193 C655.8068,205.0819 663.3233,205.6707 667.8097,211.2663 C678.7745,215.5416 681.2629,226.2037 672.8449,234.6523 C683.0643,243.9138 679.6998,255.2883 666.176,257.6712 C662.9978,263.5317 656.0744,264.0795 652.1592,258.5806 C648.4533,265.6132 643.8491,265.923 638.1302,260.9287 C632.9842,267.0286 628.6023,265.5287 625.595,258.8335 C621.4717,267.1655 614.915,265.429 610.3742,259.2719 C606.6641,265.6939 601.8881,267.6948 596.3806,261.2226 C592.6246,267.2326 587.0441,268.8598 582.539,262.0303 C578.3227,269.176 572.3616,270.9176 567.1879,263.0064 C563.4517,269.567 556.7484,269.3358 553.6926,262.3295 C547.7612,268.9228 543.2587,266.2242 539.7662,259.7336 C534.965,266.3351 530.0507,267.1088 525.4506,259.5305 C522.0951,267.3319 516.2314,267.7253 511.3991,260.9546 C506.9223,266.5097 500.244,265.7262 497.8541,258.7067 C493.6868,265.519 487.7973,266.0726 482.5101,260.0451 C478.0511,265.9564 473.3256,266.7393 469.1598,259.7418 C455.1414,257.1821 452.4705,246.9555 459.0831,235.7358 C451.534,224.9127 455.9931,213.5373 469.2938,211.4974" fill="#FFFFFF" style="stroke:#000000;stroke-width:1;"/><text fill="#000000" font-family="Verdana" font-size="14" lengthAdjust="spacing" textLength="40.8789" x="475" y="230.9964">GHCR</text><text fill="#000000" font-family="Verdana" font-size="14" lengthAdjust="spacing" textLength="183.7363" x="475" y="247.2932">(container image registry)</text></g><!--link Student to FE--><g class="link" data-entity-1="Student" data-entity-2="FE" data-source-line="22" data-uid="lnk16" id="link_Student_FE"><path d="M323.12,273.0212 C321.96,287.8612 322.12,304.9312 326,320.0012 C330.64,338.0012 337.0222,351.1757 346.1422,365.8457" fill="none" id="Student-to-FE" style="stroke:#000000;stroke-width:1;"/><polygon fill="#000000" points="349.31,370.9412,347.9553,361.186,346.6702,366.6949,341.1612,365.4097,349.31,370.9412" style="stroke:#000000;stroke-width:1;"/><text fill="#000000" font-family="Verdana" font-size="13" lengthAdjust="spacing" textLength="41.7485" x="327" y="316.0681">HTTPS</text></g><!--link Admin to FE--><g class="link" data-entity-1="Admin" data-entity-2="FE" data-source-line="23" data-uid="lnk17" id="link_Admin_FE"><path d="M251.67,273.3412 C255.98,288.7312 262.47,306.1112 272,320.0012 C285.53,339.7412 300.3654,353.6641 318.5754,367.3641" fill="none" id="Admin-to-FE" style="stroke:#000000;stroke-width:1;"/><polygon fill="#000000" points="323.37,370.9712,318.5828,362.3641,319.3745,367.9653,313.7733,368.7569,323.37,370.9712" style="stroke:#000000;stroke-width:1;"/><text fill="#000000" font-family="Verdana" font-size="13" lengthAdjust="spacing" textLength="41.7485" x="273" y="316.0681">HTTPS</text></g><!--link FE to API--><g class="link" data-entity-1="FE" data-entity-2="API" data-source-line="25" data-uid="lnk18" id="link_FE_API"><path d="M401.15,434.3412 C415.62,448.8212 433.4,466.1312 450,481.0012 C461.12,490.9712 468.9194,497.6102 480.3894,506.9602" fill="none" id="FE-to-API" style="stroke:#000000;stroke-width:1;"/><polygon fill="#000000" points="485.04,510.7512,480.5915,501.9643,481.1645,507.5921,475.5367,508.1651,485.04,510.7512" style="stroke:#000000;stroke-width:1;"/><text fill="#000000" font-family="Verdana" font-size="13" lengthAdjust="spacing" textLength="157.1299" x="451" y="477.0681">REST / JSON over HTTPS</text></g><!--link API to AUTH--><g class="link" data-entity-1="API" data-entity-2="AUTH" data-source-line="26" data-uid="lnk19" id="link_API_AUTH"><path d="M460.46,544.9012 C392.06,548.7112 281.67,561.6212 197,604.0012 C174.47,615.2812 157.7049,630.0465 142.4149,646.4965" fill="none" id="API-to-AUTH" style="stroke:#000000;stroke-width:1;"/><polygon fill="#000000" points="138.33,650.8912,147.3871,647.0223,141.734,647.2289,141.5274,641.5759,138.33,650.8912" style="stroke:#000000;stroke-width:1;"/><text fill="#000000" font-family="Verdana" font-size="13" lengthAdjust="spacing" textLength="198.4595" x="198" y="617.0681">validates JWT on admin routes</text></g><!--link API to EVR--><g class="link" data-entity-1="API" data-entity-2="EVR" data-source-line="27" data-uid="lnk20" id="link_API_EVR"><path d="M569.05,574.1312 C607.01,599.9312 655.458,632.868 689.408,655.948" fill="none" id="API-to-EVR" style="stroke:#000000;stroke-width:1;"/><polygon fill="#000000" points="694.37,659.3212,689.1759,650.9534,690.235,656.5102,684.6782,657.5693,694.37,659.3212" style="stroke:#000000;stroke-width:1;"/></g><!--link API to MEM--><g class="link" data-entity-1="API" data-entity-2="MEM" data-source-line="28" data-uid="lnk21" id="link_API_MEM"><path d="M476.95,574.1312 C437.3,599.9312 386.5587,632.9682 351.0987,656.0482" fill="none" id="API-to-MEM" style="stroke:#000000;stroke-width:1;"/><polygon fill="#000000" points="346.07,659.3212,355.795,657.7641,350.2605,656.5937,351.431,651.0593,346.07,659.3212" style="stroke:#000000;stroke-width:1;"/></g><!--link API to KAN--><g class="link" data-entity-1="API" data-entity-2="KAN" data-source-line="29" data-uid="lnk22" id="link_API_KAN"><path d="M587.6,566.6012 C658.81,592.4612 767.7105,632.0027 837.6905,657.4227" fill="none" id="API-to-KAN" style="stroke:#000000;stroke-width:1;"/><polygon fill="#000000" points="843.33,659.4712,836.2365,652.6388,838.6304,657.7641,833.5051,660.1581,843.33,659.4712" style="stroke:#000000;stroke-width:1;"/></g><!--link API to QST--><g class="link" data-entity-1="API" data-entity-2="QST" data-source-line="30" data-uid="lnk23" id="link_API_QST"><path d="M524,574.1312 C524,599.8512 524,630.0212 524,653.1112" fill="none" id="API-to-QST" style="stroke:#000000;stroke-width:1;"/><polygon fill="#000000" points="524,659.1112,528,650.1112,524,654.1112,520,650.1112,524,659.1112" style="stroke:#000000;stroke-width:1;"/></g><!--link EVR to DB--><g class="link" data-entity-1="EVR" data-entity-2="DB" data-source-line="32" data-uid="lnk24" id="link_EVR_DB"><path d="M716.23,705.6812 C703.42,732.0512 684.8119,770.3645 672.1219,796.4845" fill="none" id="EVR-to-DB" style="stroke:#000000;stroke-width:1;"/><polygon fill="#000000" points="669.5,801.8812,677.0308,795.534,671.685,797.3839,669.8351,792.0381,669.5,801.8812" style="stroke:#000000;stroke-width:1;"/><text fill="#000000" font-family="Verdana" font-size="13" lengthAdjust="spacing" textLength="94.3262" x="696" y="759.0681">SQL (asyncpg)</text></g><!--link MEM to DB--><g class="link" data-entity-1="MEM" data-entity-2="DB" data-source-line="33" data-uid="lnk25" id="link_MEM_DB"><path d="M348.9,705.6312 C366.55,715.9112 388.13,728.0312 408,738.0012 C474.25,771.2212 550.6617,794.9014 602.5417,809.0614" fill="none" id="MEM-to-DB" style="stroke:#000000;stroke-width:1;"/><polygon fill="#000000" points="608.33,810.6412,600.7008,804.4126,603.5064,809.3247,598.5944,812.1303,608.33,810.6412" style="stroke:#000000;stroke-width:1;"/><text fill="#000000" font-family="Verdana" font-size="13" lengthAdjust="spacing" textLength="94.3262" x="461" y="759.0681">SQL (asyncpg)</text></g><!--link KAN to DB--><g class="link" data-entity-1="KAN" data-entity-2="DB" data-source-line="34" data-uid="lnk26" id="link_KAN_DB"><path d="M878.47,705.6112 C857.93,722.6912 827.84,746.1812 799,763.0012 C770.64,779.5412 742.4893,792.0441 715.2393,802.8241" fill="none" id="KAN-to-DB" style="stroke:#000000;stroke-width:1;"/><polygon fill="#000000" points="709.66,805.0312,719.5004,805.4401,714.3094,803.192,716.5575,798.001,709.66,805.0312" style="stroke:#000000;stroke-width:1;"/><text fill="#000000" font-family="Verdana" font-size="13" lengthAdjust="spacing" textLength="94.3262" x="824" y="759.0681">SQL (asyncpg)</text></g><!--link QST to DB--><g class="link" data-entity-1="QST" data-entity-2="DB" data-source-line="35" data-uid="lnk27" id="link_QST_DB"><path d="M538.46,705.5612 C549.86,722.1912 566.68,745.1112 584,763.0012 C597.62,777.0612 609.6803,787.2713 623.9503,798.1613" fill="none" id="QST-to-DB" style="stroke:#000000;stroke-width:1;"/><polygon fill="#000000" points="628.72,801.8012,623.992,793.1614,624.7452,798.7679,619.1387,799.5211,628.72,801.8012" style="stroke:#000000;stroke-width:1;"/><text fill="#000000" font-family="Verdana" font-size="13" lengthAdjust="spacing" textLength="94.3262" x="585" y="759.0681">SQL (asyncpg)</text></g><!--link MEM to THUMBOR--><g class="link" data-entity-1="MEM" data-entity-2="THUMBOR" data-source-line="37" data-uid="lnk28" id="link_MEM_THUMBOR"><path d="M279.62,705.6912 C261.62,717.0212 238.4,730.0612 216,738.0012 C195.62,745.2312 181.98,729.5012 168,746.0012 C157.29,758.6412 156.3818,771.1401 159.5518,786.8301" fill="none" id="MEM-to-THUMBOR" style="stroke:#000000;stroke-width:1;"/><polygon fill="#000000" points="160.74,792.7112,162.8784,783.0973,159.7498,787.8103,155.0369,784.6816,160.74,792.7112" style="stroke:#000000;stroke-width:1;"/><text fill="#000000" font-family="Verdana" font-size="13" lengthAdjust="spacing" textLength="242.1123" x="169" y="759.0681">image resize / crop (member photos)</text></g><!--link CI to GHCR--><g class="link" data-entity-1="CI" data-entity-2="GHCR" data-source-line="39" data-uid="lnk29" id="link_CI_GHCR"><path d="M567,119.2512 C567,143.8612 567,172.2012 567,196.7912" fill="none" id="CI-to-GHCR" style="stroke:#000000;stroke-width:1;"/><polygon fill="#000000" points="567,202.7912,571,193.7912,567,197.7912,563,193.7912,567,202.7912" style="stroke:#000000;stroke-width:1;"/><text fill="#000000" font-family="Verdana" font-size="13" lengthAdjust="spacing" textLength="243.0264" x="568" y="162.0681">build &amp; push images on push to main</text></g><!--link GHCR to FE--><g class="link" data-entity-1="GHCR" data-entity-2="FE" data-source-line="40" data-uid="lnk30" id="link_GHCR_FE"><path d="M462.58,266.0312 C442.94,275.4512 423.91,287.5512 409,303.0012 C391.05,321.6012 382.741,343.7547 377.641,365.1547" fill="none" id="GHCR-to-FE" style="stroke:#000000;stroke-width:1;stroke-dasharray:7,7;"/><polygon fill="#000000" points="376.25,370.9912,382.2275,363.1637,377.4091,366.1275,374.4454,361.3091,376.25,370.9912" style="stroke:#000000;stroke-width:1;"/><text fill="#000000" font-family="Verdana" font-size="13" lengthAdjust="spacing" textLength="198.8721" x="410" y="316.0681">image pulled by VPS at deploy</text></g><!--link GHCR to API--><g class="link" data-entity-1="GHCR" data-entity-2="API" data-source-line="41" data-uid="lnk31" id="link_GHCR_API"><path d="M593.5,266.0612 C601.36,276.9812 608.95,289.8512 613,303.0012 C636.31,378.6012 650.01,411.0812 613,481.0012 C606.79,492.7212 601.9432,498.9527 591.3032,507.1027" fill="none" id="GHCR-to-API" style="stroke:#000000;stroke-width:1;stroke-dasharray:7,7;"/><polygon fill="#000000" points="586.54,510.7512,596.1172,508.4539,590.5094,507.7108,591.2525,502.103,586.54,510.7512" style="stroke:#000000;stroke-width:1;"/><text fill="#000000" font-family="Verdana" font-size="13" lengthAdjust="spacing" textLength="198.8721" x="636" y="407.0681">image pulled by VPS at deploy</text></g><!--SRC=[VLDBZzCm4BxxLmmze5RGziu1AKrRsbswcqtISbWuECaejKXiotQA0kA_CywZi8XocvdlOUSRvvKxOusWAouaSy9L28bh2fGEZb8e2P4oZbSmXr3LMaaFh0Kl3QzXcZZkH0udWTzcZF7SAJEgXoueQl9bckTVUOam-PVt17umWEUjKTAXB229Wizo6YCvm1j8Mur9ReJspKaud7q1Rc6xyPeL-Nf94Er9ikNMKTKJgF2Ce75dEAYYgP0OTv_Ijy2rNd8QBtGxK8_fpdCt5xgQXLWr3as7R4wn1mvOPsXU88VDmIFtN6PS_WdS1myUU6hGElf6oON15ygd96K_6Ikuunctb4cah2iD9ayV9nvVhzXpUcxgJ1cwiQXzRjge7AqLiWIBvYBo8OLqTpoi7cEMLwefOF91k5sJGP3xaosfm_qoNCywst1_PUt2cB2SugQbeu7-38EbiCwqFTsJ61lNDP-_fyJX7UpID4fOjzM_XungFwBWQHPlaXIMS9SyFe2wq263ai2EH94Jwy8hGK5GGBGPe1V1EsVZqx9Nij_2MFlSnzf7FTO-LKR4hbclo9loX2cthSnrEMEakmMHpIs8N6z1LyTX1qGOSxJYEzAtvqPfcDRTsm5zLavPaeNzVNs-9CaQKHNm6dHZpxtU-XYwrYce_L_PKHUB8UpXGJHLXGLaBPoY1BY30dMbsj_SVWl_9_y2]--></g></svg>