<svg xmlns="http://www.w3.org/2000/svg" xmlns:xlink="http://www.w3.org/1999/xlink" contentStyleType="text/css" data-diagram-type="SEQUENCE" height="861px" preserveAspectRatio="none" style="width:1361px;height:861px;background:#FFFFFF;" version="1.1" viewBox="0 0 1361 861" width="1361px" zoomAndPan="magnify"><title>Admin Publishes an Event (Dynamic View)</title><defs/><g><text fill="#000000" font-family="Verdana" font-size="22" font-weight="bold" lengthAdjust="spacing" textLength="524.1006" x="422.3281" y="35.4209">Admin Publishes an Event (Dynamic View)</text><rect fill="#FFFFFF" height="514.8672" style="stroke:#000000;stroke-width:1;" width="1339.7568" x="15" y="248.4375"/><rect fill="#FFFFFF" height="410.3359" style="stroke:none;stroke-width:1;" width="1339.7568" x="15" y="352.9688"/><rect fill="#FFFFFF" height="323.2656" style="stroke:#000000;stroke-width:1;" width="1319.7568" x="25" y="433.0391"/><rect fill="#FFFFFF" height="218.7344" style="stroke:none;stroke-width:1;" width="1319.7568" x="25" y="537.5703"/><g><title>Admin</title><rect fill="#000000" fill-opacity="0.00000" height="651.3984" width="8" x="56.4321" y="128.9063"/><line style="stroke:#000000;stroke-width:1;stroke-dasharray:5,5;" x1="60" x2="60" y1="128.9063" y2="780.3047"/></g><g><title>Frontend SPA</title><rect fill="#000000" fill-opacity="0.00000" height="651.3984" width="8" x="274.5435" y="128.9063"/><line style="stroke:#000000;stroke-width:1;stroke-dasharray:5,5;" x1="278.3105" x2="278.3105" y1="128.9063" y2="780.3047"/></g><g><title>Backend API</title><rect fill="#000000" fill-opacity="0.00000" height="651.3984" width="8" x="579.8525" y="128.9063"/><line style="stroke:#000000;stroke-width:1;stroke-dasharray:5,5;" x1="583.3726" x2="583.3726" y1="128.9063" y2="780.3047"/></g><g><title>Auth Module</title><rect fill="#000000" fill-opacity="0.00000" height="651.3984" width="8" x="794.1807" y="128.9063"/><line style="stroke:#000000;stroke-width:1;stroke-dasharray:5,5;" x1="798.0957" x2="798.0957" y1="128.9063" y2="780.3047"/></g><g><title>EventCreate</title><rect fill="#000000" fill-opacity="0.00000" height="651.3984" width="8" x="947.3711" y="128.9063"/><line style="stroke:#000000;stroke-width:1;stroke-dasharray:5,5;" x1="951.2656" x2="951.2656" y1="128.9063" y2="780.3047"/></g><g><title>Events Router</title><rect fill="#000000" fill-opacity="0.00000" height="651.3984" width="8" x="1105.9141" y="128.9063"/><line style="stroke:#000000;stroke-width:1;stroke-dasharray:5,5;" x1="1109.4766" x2="1109.4766" y1="128.9063" y2="780.3047"/></g><g><title>PostgreSQL</title><rect fill="#000000" fill-opacity="0.00000" height="651.3984" width="8" x="1287.3804" y="128.9063"/><line style="stroke:#000000;stroke-width:1;stroke-dasharray:5,5;" x1="1291.0039" x2="1291.0039" y1="128.9063" y2="780.3047"/></g><g class="participant participant-head" data-participant="Admin"><text fill="#000000" font-family="Verdana" font-size="14" lengthAdjust="spacing" textLength="44.8643" x="35" y="125.6045">Admin</text><ellipse cx="60.4321" cy="60.6094" fill="#FFFFFF" rx="8" ry="8" style="stroke:#000000;stroke-width:1;"/><path d="M60.4321,68.6094 L60.4321,95.6094 M47.4321,76.6094 L73.4321,76.6094 M60.4321,95.6094 L47.4321,110.6094 M60.4321,95.6094 L73.4321,110.6094" fill="none" style="stroke:#000000;stroke-width:1;"/></g><g class="participant participant-tail" data-participant="Admin"><text fill="#000000" font-family="Verdana" font-size="14" lengthAdjust="spacing" textLength="44.8643" x="35" y="792.2998">Admin</text><ellipse cx="60.4321" cy="804.6016" fill="#FFFFFF" rx="8" ry="8" style="stroke:#000000;stroke-width:1;"/><path d="M60.4321,812.6016 L60.4321,839.6016 M47.4321,820.6016 L73.4321,820.6016 M60.4321,839.6016 L47.4321,854.6016 M60.4321,839.6016 L73.4321,854.6016" fill="none" style="stroke:#000000;stroke-width:1;"/></g><g class="participant participant-head" data-participant="FE"><rect fill="#FFFFFF" height="30.2969" rx="2.5" ry="2.5" style="stroke:#000000;stroke-width:1;" width="108.4658" x="224.3105" y="97.6094"/><text fill="#000000" font-family="Verdana" font-size="14" lengthAdjust="spacing" textLength="94.4658" x="231.3105" y="117.6045">Frontend SPA</text></g><g class="participant participant-tail" data-participant="FE"><rect fill="#FFFFFF" height="30.2969" rx="2.5" ry="2.5" style="stroke:#000000;stroke-width:1;" width="108.4658" x="224.3105" y="779.3047"/><text fill="#000000" font-family="Verdana" font-size="14" lengthAdjust="spacing" textLength="94.4658" x="231.3105" y="799.2998">Frontend SPA</text></g><g class="participant participant-head" data-participant="API"><rect fill="#FFFFFF" height="46.5938" rx="2.5" ry="2.5" style="stroke:#000000;stroke-width:1;" width="100.96" x="533.3726" y="81.3125"/><text fill="#000000" font-family="Verdana" font-size="14" lengthAdjust="spacing" textLength="86.96" x="540.3726" y="101.3076">Backend API</text><text fill="#000000" font-family="Verdana" font-size="14" lengthAdjust="spacing" textLength="62.4873" x="552.6089" y="117.6045">(FastAPI)</text></g><g class="participant participant-tail" data-participant="API"><rect fill="#FFFFFF" height="46.5938" rx="2.5" ry="2.5" style="stroke:#000000;stroke-width:1;" width="100.96" x="533.3726" y="779.3047"/><text fill="#000000" font-family="Verdana" font-size="14" lengthAdjust="spacing" textLength="86.96" x="540.3726" y="799.2998">Backend API</text><text fill="#000000" font-family="Verdana" font-size="14" lengthAdjust="spacing" textLength="62.4873" x="552.6089" y="815.5967">(FastAPI)</text></g><g class="participant participant-head" data-participant="AUTH"><rect fill="#FFFFFF" height="30.2969" rx="2.5" ry="2.5" style="stroke:#000000;stroke-width:1;" width="102.1699" x="747.0957" y="97.6094"/><text fill="#000000" font-family="Verdana" font-size="14" lengthAdjust="spacing" textLength="88.1699" x="754.0957" y="117.6045">Auth Module</text></g><g class="participant participant-tail" data-participant="AUTH"><rect fill="#FFFFFF" height="30.2969" rx="2.5" ry="2.5" style="stroke:#000000;stroke-width:1;" width="102.1699" x="747.0957" y="779.3047"/><text fill="#000000" font-family="Verdana" font-size="14" lengthAdjust="spacing" textLength="88.1699" x="754.0957" y="799.2998">Auth Module</text></g><g class="participant participant-head" data-participant="SCHEMA"><rect fill="#FFFFFF" height="46.5938" rx="2.5" ry="2.5" style="stroke:#000000;stroke-width:1;" width="144.2109" x="879.2656" y="81.3125"/><text fill="#000000" font-family="Verdana" font-size="14" lengthAdjust="spacing" textLength="86.9326" x="907.9048" y="101.3076">EventCreate</text><text fill="#000000" font-family="Verdana" font-size="14" lengthAdjust="spacing" textLength="130.2109" x="886.2656" y="117.6045">(Pydantic schema)</text></g><g class="participant participant-tail" data-participant="SCHEMA"><rect fill="#FFFFFF" height="46.5938" rx="2.5" ry="2.5" style="stroke:#000000;stroke-width:1;" width="144.2109" x="879.2656" y="779.3047"/><text fill="#000000" font-family="Verdana" font-size="14" lengthAdjust="spacing" textLength="86.9326" x="907.9048" y="799.2998">EventCreate</text><text fill="#000000" font-family="Verdana" font-size="14" lengthAdjust="spacing" textLength="130.2109" x="886.2656" y="815.5967">(Pydantic schema)</text></g><g class="participant participant-head" data-participant="EVR"><rect fill="#FFFFFF" height="30.2969" rx="2.5" ry="2.5" style="stroke:#000000;stroke-width:1;" width="112.875" x="1053.4766" y="97.6094"/><text fill="#000000" font-family="Verdana" font-size="14" lengthAdjust="spacing" textLength="98.875" x="1060.4766" y="117.6045">Events Router</text></g><g class="participant participant-tail" data-participant="EVR"><rect fill="#FFFFFF" height="30.2969" rx="2.5" ry="2.5" style="stroke:#000000;stroke-width:1;" width="112.875" x="1053.4766" y="779.3047"/><text fill="#000000" font-family="Verdana" font-size="14" lengthAdjust="spacing" textLength="98.875" x="1060.4766" y="799.2998">Events Router</text></g><g class="participant participant-head" data-participant="DB"><text fill="#000000" font-family="Verdana" font-size="14" lengthAdjust="spacing" textLength="80.7529" x="1248.0039" y="125.6045">PostgreSQL</text><path d="M1273.3804,76.6094 C1273.3804,66.6094 1291.3804,66.6094 1291.3804,66.6094 C1291.3804,66.6094 1309.3804,66.6094 1309.3804,76.6094 L1309.3804,102.6094 C1309.3804,112.6094 1291.3804,112.6094 1291.3804,112.6094 C1291.3804,112.6094 1273.3804,112.6094 1273.3804,102.6094 L1273.3804,76.6094" fill="#FFFFFF" style="stroke:#000000;stroke-width:1;"/><path d="M1273.3804,76.6094 C1273.3804,86.6094 1291.3804,86.6094 1291.3804,86.6094 C1291.3804,86.6094 1309.3804,86.6094 1309.3804,76.6094" fill="none" style="stroke:#000000;stroke-width:1;"/></g><g class="participant participant-tail" data-participant="DB"><text fill="#000000" font-family="Verdana" font-size="14" lengthAdjust="spacing" textLength="80.7529" x="1248.0039" y="792.2998">PostgreSQL</text><path d="M1273.3804,805.6016 C1273.3804,795.6016 1291.3804,795.6016 1291.3804,795.6016 C1291.3804,795.6016 1309.3804,795.6016 1309.3804,805.6016 L1309.3804,831.6016 C1309.3804,841.6016 1291.3804,841.6016 1291.3804,841.6016 C1291.3804,841.6016 1273.3804,841.6016 1273.3804,831.6016 L1273.3804,805.6016" fill="#FFFFFF" style="stroke:#000000;stroke-width:1;"/><path d="M1273.3804,805.6016 C1273.3804,815.6016 1291.3804,815.6016 1291.3804,815.6016 C1291.3804,815.6016 1309.3804,815.6016 1309.3804,805.6016" fill="none" style="stroke:#000000;stroke-width:1;"/></g><g class="message" data-participant-1="Admin" data-participant-2="FE"><polygon fill="#000000" points="266.5435,156.0391,276.5435,160.0391,266.5435,164.0391,270.5435,160.0391" style="stroke:#000000;stroke-width:1;"/><line style="stroke:#000000;stroke-width:1;" x1="60.4321" x2="272.5435" y1="160.0391" y2="160.0391"/><text fill="#000000" font-family="Verdana" font-size="13" lengthAdjust="spacing" textLength="194.1113" x="67.4321" y="154.9731">Fill event form, click "Publish"</text></g><g class="message" data-participant-1="FE" data-participant-2="API"><polygon fill="#000000" points="571.8525,200.3047,581.8525,204.3047,571.8525,208.3047,575.8525,204.3047" style="stroke:#000000;stroke-width:1;"/><line style="stroke:#000000;stroke-width:1;" x1="278.5435" x2="577.8525" y1="204.3047" y2="204.3047"/><text fill="#000000" font-family="Verdana" font-size="13" lengthAdjust="spacing" textLength="155.8984" x="285.5435" y="184.106">POST /api/admin/events</text><text fill="#000000" font-family="Verdana" font-size="13" lengthAdjust="spacing" textLength="281.3091" x="285.5435" y="199.2388">(Authorization: Bearer &lt;JWT&gt;, event JSON)</text></g><g class="message" data-participant-1="API" data-participant-2="AUTH"><polygon fill="#000000" points="786.1807,229.4375,796.1807,233.4375,786.1807,237.4375,790.1807,233.4375" style="stroke:#000000;stroke-width:1;"/><line style="stroke:#000000;stroke-width:1;" x1="583.8525" x2="792.1807" y1="233.4375" y2="233.4375"/><text fill="#000000" font-family="Verdana" font-size="13" lengthAdjust="spacing" textLength="190.3281" x="590.8525" y="228.3716">verify JWT signature &amp; expiry</text></g><path d="M15,248.4375 L79.4429,248.4375 L79.4429,255.5703 L69.4429,265.5703 L15,265.5703 L15,248.4375" fill="#FFFFFF" style="stroke:#000000;stroke-width:1;"/><rect fill="none" height="514.8672" style="stroke:#000000;stroke-width:1;" width="1339.7568" x="15" y="248.4375"/><text fill="#000000" font-family="Verdana" font-size="13" font-weight="bold" lengthAdjust="spacing" textLength="19.4429" x="30" y="261.5044">alt</text><text fill="#000000" font-family="Verdana" font-size="11" font-weight="bold" lengthAdjust="spacing" textLength="293.1006" x="94.4429" y="260.6479">[token missing, malformed, expired, or forged]</text><g class="message" data-participant-1="AUTH" data-participant-2="API"><polygon fill="#000000" points="594.8525,282.7031,584.8525,286.7031,594.8525,290.7031,590.8525,286.7031" style="stroke:#000000;stroke-width:1;"/><line style="stroke:#000000;stroke-width:1;stroke-dasharray:2,2;" x1="588.8525" x2="797.1807" y1="286.7031" y2="286.7031"/><text fill="#000000" font-family="Verdana" font-size="13" lengthAdjust="spacing" textLength="37.1973" x="600.8525" y="281.6372">reject</text></g><g class="message" data-participant-1="API" data-participant-2="FE"><polygon fill="#000000" points="289.5435,311.8359,279.5435,315.8359,289.5435,319.8359,285.5435,315.8359" style="stroke:#000000;stroke-width:1;"/><line style="stroke:#000000;stroke-width:1;stroke-dasharray:2,2;" x1="283.5435" x2="582.8525" y1="315.8359" y2="315.8359"/><text fill="#000000" font-family="Verdana" font-size="13" lengthAdjust="spacing" textLength="116.2256" x="295.5435" y="310.77">401 Unauthorized</text></g><g class="message" data-participant-1="FE" data-participant-2="Admin"><polygon fill="#000000" points="71.4321,340.9688,61.4321,344.9688,71.4321,348.9688,67.4321,344.9688" style="stroke:#000000;stroke-width:1;"/><line style="stroke:#000000;stroke-width:1;stroke-dasharray:2,2;" x1="65.4321" x2="277.5435" y1="344.9688" y2="344.9688"/><text fill="#000000" font-family="Verdana" font-size="13" lengthAdjust="spacing" textLength="168.3525" x="77.4321" y="339.9028">show authentication error</text></g><line style="stroke:#000000;stroke-width:1;stroke-dasharray:2,2;" x1="15" x2="1354.7568" y1="353.9688" y2="353.9688"/><text fill="#000000" font-family="Verdana" font-size="11" font-weight="bold" lengthAdjust="spacing" textLength="79.3149" x="20" y="364.1792">[token valid]</text><g class="message" data-participant-1="AUTH" data-participant-2="API"><polygon fill="#000000" points="594.8525,384.9063,584.8525,388.9063,594.8525,392.9063,590.8525,388.9063" style="stroke:#000000;stroke-width:1;"/><line style="stroke:#000000;stroke-width:1;stroke-dasharray:2,2;" x1="588.8525" x2="797.1807" y1="388.9063" y2="388.9063"/><text fill="#000000" font-family="Verdana" font-size="13" lengthAdjust="spacing" textLength="164.3853" x="600.8525" y="383.8403">admin identity confirmed</text></g><g class="message" data-participant-1="API" data-participant-2="SCHEMA"><polygon fill="#000000" points="939.3711,414.0391,949.3711,418.0391,939.3711,422.0391,943.3711,418.0391" style="stroke:#000000;stroke-width:1;"/><line style="stroke:#000000;stroke-width:1;" x1="583.8525" x2="945.3711" y1="418.0391" y2="418.0391"/><text fill="#000000" font-family="Verdana" font-size="13" lengthAdjust="spacing" textLength="279.208" x="590.8525" y="412.9731">validate request body against EventCreate</text></g><path d="M25,433.0391 L89.4429,433.0391 L89.4429,440.1719 L79.4429,450.1719 L25,450.1719 L25,433.0391" fill="#FFFFFF" style="stroke:#000000;stroke-width:1;"/><rect fill="none" height="323.2656" style="stroke:#000000;stroke-width:1;" width="1319.7568" x="25" y="433.0391"/><text fill="#000000" font-family="Verdana" font-size="13" font-weight="bold" lengthAdjust="spacing" textLength="19.4429" x="40" y="446.106">alt</text><text fill="#000000" font-family="Verdana" font-size="11" font-weight="bold" lengthAdjust="spacing" textLength="397.8799" x="104.4429" y="445.2495">[body invalid (bad time format, unknown department tag, etc.)]</text><g class="message" data-participant-1="SCHEMA" data-participant-2="API"><polygon fill="#000000" points="594.8525,467.3047,584.8525,471.3047,594.8525,475.3047,590.8525,471.3047" style="stroke:#000000;stroke-width:1;"/><line style="stroke:#000000;stroke-width:1;stroke-dasharray:2,2;" x1="588.8525" x2="950.3711" y1="471.3047" y2="471.3047"/><text fill="#000000" font-family="Verdana" font-size="13" lengthAdjust="spacing" textLength="100.1216" x="600.8525" y="466.2388">validation error</text></g><g class="message" data-participant-1="API" data-participant-2="FE"><polygon fill="#000000" points="289.5435,496.4375,279.5435,500.4375,289.5435,504.4375,285.5435,500.4375" style="stroke:#000000;stroke-width:1;"/><line style="stroke:#000000;stroke-width:1;stroke-dasharray:2,2;" x1="283.5435" x2="582.8525" y1="500.4375" y2="500.4375"/><text fill="#000000" font-family="Verdana" font-size="13" lengthAdjust="spacing" textLength="166.8545" x="295.5435" y="495.3716">422 Unprocessable Entity</text></g><g class="message" data-participant-1="FE" data-participant-2="Admin"><polygon fill="#000000" points="71.4321,525.5703,61.4321,529.5703,71.4321,533.5703,67.4321,529.5703" style="stroke:#000000;stroke-width:1;"/><line style="stroke:#000000;stroke-width:1;stroke-dasharray:2,2;" x1="65.4321" x2="277.5435" y1="529.5703" y2="529.5703"/><text fill="#000000" font-family="Verdana" font-size="13" lengthAdjust="spacing" textLength="144.2759" x="77.4321" y="524.5044">show field-level errors</text></g><line style="stroke:#000000;stroke-width:1;stroke-dasharray:2,2;" x1="25" x2="1344.7568" y1="538.5703" y2="538.5703"/><text fill="#000000" font-family="Verdana" font-size="11" font-weight="bold" lengthAdjust="spacing" textLength="74.3682" x="30" y="548.7808">[body valid]</text><g class="message" data-participant-1="SCHEMA" data-participant-2="API"><polygon fill="#000000" points="594.8525,569.5078,584.8525,573.5078,594.8525,577.5078,590.8525,573.5078" style="stroke:#000000;stroke-width:1;"/><line style="stroke:#000000;stroke-width:1;stroke-dasharray:2,2;" x1="588.8525" x2="950.3711" y1="573.5078" y2="573.5078"/><text fill="#000000" font-family="Verdana" font-size="13" lengthAdjust="spacing" textLength="189.4966" x="600.8525" y="568.4419">validated EventCreate object</text></g><g class="message" data-participant-1="API" data-participant-2="EVR"><polygon fill="#000000" points="1097.9141,598.6406,1107.9141,602.6406,1097.9141,606.6406,1101.9141,602.6406" style="stroke:#000000;stroke-width:1;"/><line style="stroke:#000000;stroke-width:1;" x1="583.8525" x2="1103.9141" y1="602.6406" y2="602.6406"/><text fill="#000000" font-family="Verdana" font-size="13" lengthAdjust="spacing" textLength="124.5029" x="590.8525" y="597.5747">create_event(data)</text></g><g class="message" data-participant-1="EVR" data-participant-2="DB"><polygon fill="#000000" points="1279.3804,627.7734,1289.3804,631.7734,1279.3804,635.7734,1283.3804,631.7734" style="stroke:#000000;stroke-width:1;"/><line style="stroke:#000000;stroke-width:1;" x1="1109.9141" x2="1285.3804" y1="631.7734" y2="631.7734"/><text fill="#000000" font-family="Verdana" font-size="13" lengthAdjust="spacing" textLength="157.4663" x="1116.9141" y="626.7075">INSERT INTO events (...)</text></g><g class="message" data-participant-1="DB" data-participant-2="EVR"><polygon fill="#000000" points="1120.9141,656.9063,1110.9141,660.9063,1120.9141,664.9063,1116.9141,660.9063" style="stroke:#000000;stroke-width:1;"/><line style="stroke:#000000;stroke-width:1;stroke-dasharray:2,2;" x1="1114.9141" x2="1290.3804" y1="660.9063" y2="660.9063"/><text fill="#000000" font-family="Verdana" font-size="13" lengthAdjust="spacing" textLength="96.0908" x="1126.9141" y="655.8403">new event row</text></g><g class="message" data-participant-1="EVR" data-participant-2="API"><polygon fill="#000000" points="594.8525,686.0391,584.8525,690.0391,594.8525,694.0391,590.8525,690.0391" style="stroke:#000000;stroke-width:1;"/><line style="stroke:#000000;stroke-width:1;stroke-dasharray:2,2;" x1="588.8525" x2="1108.9141" y1="690.0391" y2="690.0391"/><text fill="#000000" font-family="Verdana" font-size="13" lengthAdjust="spacing" textLength="37.2417" x="600.8525" y="684.9731">Event</text></g><g class="message" data-participant-1="API" data-participant-2="FE"><polygon fill="#000000" points="289.5435,715.1719,279.5435,719.1719,289.5435,723.1719,285.5435,719.1719" style="stroke:#000000;stroke-width:1;"/><line style="stroke:#000000;stroke-width:1;stroke-dasharray:2,2;" x1="283.5435" x2="582.8525" y1="719.1719" y2="719.1719"/><text fill="#000000" font-family="Verdana" font-size="13" lengthAdjust="spacing" textLength="168.1558" x="295.5435" y="714.106">201 Created (event JSON)</text></g><g class="message" data-participant-1="FE" data-participant-2="Admin"><polygon fill="#000000" points="71.4321,744.3047,61.4321,748.3047,71.4321,752.3047,67.4321,748.3047" style="stroke:#000000;stroke-width:1;"/><line style="stroke:#000000;stroke-width:1;stroke-dasharray:2,2;" x1="65.4321" x2="277.5435" y1="748.3047" y2="748.3047"/><text fill="#000000" font-family="Verdana" font-size="13" lengthAdjust="spacing" textLength="184.4248" x="77.4321" y="743.2388">show newly published event</text></g><!--SRC=[TLJ1RXen4BtxAwOSAf0WQQEUK1K94b0IDGaD9BrKgeRr06wyzjRsXco_lcDx8K5D3girzfldzzxCyY5ig2IeD2eZWWgQO2HBPM1MBxNo6_A01YPFP09qpnk3fIhWGT6s9mGMmReC5nMwe0fL8UCwKsTD82DXFXjr03rC9uU0CHQFyNmqk_nfkbFqWLUz1EN58NPKXmrSMrbhoe3xnSKX8gaxSuI1c6tMIDvbbRvWQvXPvsSNa-lH6sKUxcmTo2NKvE5EI0ouH4_GcLaVrexctx-bm_En43cQmIaRWY5CbTP0APgLTMKV2gsAHoxCqNK4enZBZXWykvqlu1WhTOoHv3ZLUTOR_Lcd_c9GrWnXJEZ8mTUh7ulJVij-DR-zwOd84-dOF_CzaLEh1XW6NgqDXjeHV0HwhfHhk3SwGB0SCfJAUsNMVIXHHvaa-naL5zm_tbkJ59291tl1ZdvJ4U9-l7Vd-Skdpt1liDMSwgBBM9Mo6OBVs2r40CKk95T0pbadI7EiMTGJQlN6dIaQK3AMXWOAQrOgAjwfE6qR6Vr71kuuw_nJam-mjB81NFCSyuzN8o6uEAQHpfL9TT1TeeIWUF9Z91ZwK9j7OxS69CKXAMFi0Jar2iLHZobWT_MBsbR2Yy68Eaphv8JJgfmjo7jSyiSrISuIygtSLegq76XkkywSdg4fjoH_5zlxOaY-zWvssJPn7o3FEAEBTFmhZLStZdos60yPSpvcoENDV7AtuDVYDe-XX-xHKPi58mPxCaFRTb2TtRxmxAKbGV-7SyAZb6LoFruF-dlXy3swWQhzOvBvpfYFaI8-_m00]--></g></svg>