<?xml version="1.0" encoding="UTF-8"?>
<svg xmlns="http://www.w3.org/2000/svg" style="display:none">
  <symbol id="i-home" viewBox="0 0 24 24" fill="none" stroke="currentColor" stroke-width="1.75" stroke-linecap="round" stroke-linejoin="round"><path d="M3 12 12 3l9 9"/><path d="M5 10v10h14V10"/><path d="M10 20v-6h4v6"/></symbol>
  <symbol id="i-users" viewBox="0 0 24 24" fill="none" stroke="currentColor" stroke-width="1.75" stroke-linecap="round" stroke-linejoin="round"><circle cx="9" cy="8" r="3.5"/><path d="M3 20c0-3.3 2.7-6 6-6s6 2.7 6 6"/><circle cx="17" cy="7" r="2.6"/><path d="M21 18c0-2.5-2-4.5-4.5-4.5"/></symbol>
  <symbol id="i-calendar" viewBox="0 0 24 24" fill="none" stroke="currentColor" stroke-width="1.75" stroke-linecap="round" stroke-linejoin="round"><rect x="3" y="5" width="18" height="16" rx="2"/><path d="M3 10h18"/><path d="M8 3v4"/><path d="M16 3v4"/></symbol>
  <symbol id="i-clipboard" viewBox="0 0 24 24" fill="none" stroke="currentColor" stroke-width="1.75" stroke-linecap="round" stroke-linejoin="round"><rect x="6" y="4" width="12" height="17" rx="2"/><rect x="9" y="2" width="6" height="4" rx="1"/><path d="M9 11h6"/><path d="M9 15h4"/></symbol>
  <symbol id="i-heart" viewBox="0 0 24 24" fill="none" stroke="currentColor" stroke-width="1.75" stroke-linecap="round" stroke-linejoin="round"><path d="M20.8 7.6a5 5 0 0 0-8.8-2 5 5 0 0 0-8.8 2c0 5.2 8.8 11 8.8 11s8.8-5.8 8.8-11Z"/></symbol>
  <symbol id="i-kanban" viewBox="0 0 24 24" fill="none" stroke="currentColor" stroke-width="1.75" stroke-linecap="round" stroke-linejoin="round"><rect x="3" y="4" width="6" height="13" rx="1"/><rect x="11" y="4" width="6" height="9" rx="1"/><rect x="19" y="4" width="2" height="6" rx="1"/></symbol>
  <symbol id="i-shield" viewBox="0 0 24 24" fill="none" stroke="currentColor" stroke-width="1.75" stroke-linecap="round" stroke-linejoin="round"><path d="M12 3 4 6v6c0 4.6 3.2 8.6 8 10 4.8-1.4 8-5.4 8-10V6l-8-3Z"/><path d="m9 12 2 2 4-4"/></symbol>
  <symbol id="i-search" viewBox="0 0 24 24" fill="none" stroke="currentColor" stroke-width="1.75" stroke-linecap="round" stroke-linejoin="round"><circle cx="11" cy="11" r="7"/><path d="m20 20-4-4"/></symbol>
  <symbol id="i-bell" viewBox="0 0 24 24" fill="none" stroke="currentColor" stroke-width="1.75" stroke-linecap="round" stroke-linejoin="round"><path d="M6 8a6 6 0 0 1 12 0c0 7 3 9 3 9H3s3-2 3-9"/><path d="M10 21a2 2 0 0 0 4 0"/></symbol>
  <symbol id="i-menu" viewBox="0 0 24 24" fill="none" stroke="currentColor" stroke-width="1.75" stroke-linecap="round" stroke-linejoin="round"><path d="M4 6h16"/><path d="M4 12h16"/><path d="M4 18h16"/></symbol>
  <symbol id="i-x" viewBox="0 0 24 24" fill="none" stroke="currentColor" stroke-width="1.75" stroke-linecap="round" stroke-linejoin="round"><path d="m6 6 12 12"/><path d="m18 6-12 12"/></symbol>
  <symbol id="i-plus" viewBox="0 0 24 24" fill="none" stroke="currentColor" stroke-width="1.75" stroke-linecap="round" stroke-linejoin="round"><path d="M12 5v14"/><path d="M5 12h14"/></symbol>
  <symbol id="i-chevron-r" viewBox="0 0 24 24" fill="none" stroke="currentColor" stroke-width="1.75" stroke-linecap="round" stroke-linejoin="round"><path d="m9 6 6 6-6 6"/></symbol>
  <symbol id="i-chevron-l" viewBox="0 0 24 24" fill="none" stroke="currentColor" stroke-width="1.75" stroke-linecap="round" stroke-linejoin="round"><path d="m15 6-6 6 6 6"/></symbol>
  <symbol id="i-chevron-d" viewBox="0 0 24 24" fill="none" stroke="currentColor" stroke-width="1.75" stroke-linecap="round" stroke-linejoin="round"><path d="m6 9 6 6 6-6"/></symbol>
  <symbol id="i-check" viewBox="0 0 24 24" fill="none" stroke="currentColor" stroke-width="2.5" stroke-linecap="round" stroke-linejoin="round"><path d="m5 13 4 4 10-10"/></symbol>
  <symbol id="i-arrow-r" viewBox="0 0 24 24" fill="none" stroke="currentColor" stroke-width="1.75" stroke-linecap="round" stroke-linejoin="round"><path d="M5 12h14"/><path d="m13 5 7 7-7 7"/></symbol>
  <symbol id="i-filter" viewBox="0 0 24 24" fill="none" stroke="currentColor" stroke-width="1.75" stroke-linecap="round" stroke-linejoin="round"><path d="M4 5h16l-6 8v6l-4-2v-4Z"/></symbol>
  <symbol id="i-download" viewBox="0 0 24 24" fill="none" stroke="currentColor" stroke-width="1.75" stroke-linecap="round" stroke-linejoin="round"><path d="M12 4v12"/><path d="m7 11 5 5 5-5"/><path d="M5 20h14"/></symbol>
  <symbol id="i-pin" viewBox="0 0 24 24" fill="none" stroke="currentColor" stroke-width="1.75" stroke-linecap="round" stroke-linejoin="round"><path d="M12 21s-7-7.2-7-12a7 7 0 0 1 14 0c0 4.8-7 12-7 12Z"/><circle cx="12" cy="9" r="2.5"/></symbol>
  <symbol id="i-clock" viewBox="0 0 24 24" fill="none" stroke="currentColor" stroke-width="1.75" stroke-linecap="round" stroke-linejoin="round"><circle cx="12" cy="12" r="9"/><path d="M12 7v5l3 2"/></symbol>
  <symbol id="i-edit" viewBox="0 0 24 24" fill="none" stroke="currentColor" stroke-width="1.75" stroke-linecap="round" stroke-linejoin="round"><path d="M4 20h4l10-10-4-4L4 16v4Z"/><path d="m13 7 4 4"/></symbol>
  <symbol id="i-trash" viewBox="0 0 24 24" fill="none" stroke="currentColor" stroke-width="1.75" stroke-linecap="round" stroke-linejoin="round"><path d="M4 6h16"/><path d="M10 6V4h4v2"/><path d="M6 6v14a2 2 0 0 0 2 2h8a2 2 0 0 0 2-2V6"/></symbol>
  <symbol id="i-copy" viewBox="0 0 24 24" fill="none" stroke="currentColor" stroke-width="1.75" stroke-linecap="round" stroke-linejoin="round"><rect x="8" y="8" width="12" height="12" rx="2"/><path d="M4 16V6a2 2 0 0 1 2-2h10"/></symbol>
  <symbol id="i-grip" viewBox="0 0 24 24" fill="none" stroke="currentColor" stroke-width="1.75" stroke-linecap="round" stroke-linejoin="round"><circle cx="9" cy="6" r="1"/><circle cx="9" cy="12" r="1"/><circle cx="9" cy="18" r="1"/><circle cx="15" cy="6" r="1"/><circle cx="15" cy="12" r="1"/><circle cx="15" cy="18" r="1"/></symbol>
  <symbol id="i-eye" viewBox="0 0 24 24" fill="none" stroke="currentColor" stroke-width="1.75" stroke-linecap="round" stroke-linejoin="round"><path d="M2 12s4-7 10-7 10 7 10 7-4 7-10 7S2 12 2 12Z"/><circle cx="12" cy="12" r="3"/></symbol>
  <symbol id="i-bold" viewBox="0 0 24 24" fill="none" stroke="currentColor" stroke-width="1.75" stroke-linecap="round" stroke-linejoin="round"><path d="M7 5h6a3.5 3.5 0 0 1 0 7H7Z"/><path d="M7 12h7a3.5 3.5 0 0 1 0 7H7Z"/></symbol>
  <symbol id="i-italic" viewBox="0 0 24 24" fill="none" stroke="currentColor" stroke-width="1.75" stroke-linecap="round" stroke-linejoin="round"><path d="M19 4h-9"/><path d="M14 20H5"/><path d="m15 4-6 16"/></symbol>
  <symbol id="i-list" viewBox="0 0 24 24" fill="none" stroke="currentColor" stroke-width="1.75" stroke-linecap="round" stroke-linejoin="round"><path d="M8 6h13"/><path d="M8 12h13"/><path d="M8 18h13"/><circle cx="4" cy="6" r="1"/><circle cx="4" cy="12" r="1"/><circle cx="4" cy="18" r="1"/></symbol>
  <symbol id="i-link" viewBox="0 0 24 24" fill="none" stroke="currentColor" stroke-width="1.75" stroke-linecap="round" stroke-linejoin="round"><path d="M10 13a5 5 0 0 0 7 0l3-3a5 5 0 0 0-7-7l-1 1"/><path d="M14 11a5 5 0 0 0-7 0l-3 3a5 5 0 0 0 7 7l1-1"/></symbol>
  <symbol id="i-image" viewBox="0 0 24 24" fill="none" stroke="currentColor" stroke-width="1.75" stroke-linecap="round" stroke-linejoin="round"><rect x="3" y="4" width="18" height="16" rx="2"/><circle cx="8.5" cy="9" r="1.5"/><path d="m3 17 5-5 6 6 4-4 3 3"/></symbol>
  <symbol id="i-trending" viewBox="0 0 24 24" fill="none" stroke="currentColor" stroke-width="1.75" stroke-linecap="round" stroke-linejoin="round"><path d="m3 17 6-6 4 4 8-8"/><path d="M14 7h7v7"/></symbol>
  <symbol id="i-star" viewBox="0 0 24 24" fill="none" stroke="currentColor" stroke-width="1.75" stroke-linecap="round" stroke-linejoin="round"><path d="m12 3 2.6 5.6 6.1.7-4.6 4.2 1.3 6L12 16.8 6.6 19.5l1.3-6-4.6-4.2 6.1-.7Z"/></symbol>
  <symbol id="i-mail" viewBox="0 0 24 24" fill="none" stroke="currentColor" stroke-width="1.75" stroke-linecap="round" stroke-linejoin="round"><rect x="3" y="5" width="18" height="14" rx="2"/><path d="m3 7 9 6 9-6"/></symbol>
  <symbol id="i-megaphone" viewBox="0 0 24 24" fill="none" stroke="currentColor" stroke-width="1.75" stroke-linecap="round" stroke-linejoin="round"><path d="m3 11 18-7v16L3 13Z"/><path d="M3 11v2"/><path d="M7 14v4a2 2 0 0 0 4 0v-3"/></symbol>
  <symbol id="i-camera" viewBox="0 0 24 24" fill="none" stroke="currentColor" stroke-width="1.75" stroke-linecap="round" stroke-linejoin="round"><path d="M3 7h4l2-3h6l2 3h4v12H3Z"/><circle cx="12" cy="13" r="4"/></symbol>
  <symbol id="i-coin" viewBox="0 0 24 24" fill="none" stroke="currentColor" stroke-width="1.75" stroke-linecap="round" stroke-linejoin="round"><circle cx="12" cy="12" r="9"/><path d="M9 9h5a2 2 0 0 1 0 4H9"/><path d="M9 13h6a2 2 0 0 1 0 4H9"/><path d="M9 6v12"/></symbol>
  <symbol id="i-flag" viewBox="0 0 24 24" fill="none" stroke="currentColor" stroke-width="1.75" stroke-linecap="round" stroke-linejoin="round"><path d="M4 4v16"/><path d="M4 5h12l-2 4 2 4H4"/></symbol>
  <symbol id="i-map" viewBox="0 0 24 24" fill="none" stroke="currentColor" stroke-width="1.75" stroke-linecap="round" stroke-linejoin="round"><path d="M3 6v14l6-2 6 2 6-2V4l-6 2-6-2Z"/><path d="M9 4v14"/><path d="M15 6v14"/></symbol>
  <symbol id="i-share" viewBox="0 0 24 24" fill="none" stroke="currentColor" stroke-width="1.75" stroke-linecap="round" stroke-linejoin="round"><circle cx="6" cy="12" r="3"/><circle cx="18" cy="6" r="3"/><circle cx="18" cy="18" r="3"/><path d="m8.6 10.6 6.8-3.2"/><path d="m8.6 13.4 6.8 3.2"/></symbol>
  <symbol id="i-text" viewBox="0 0 24 24" fill="none" stroke="currentColor" stroke-width="1.75" stroke-linecap="round" stroke-linejoin="round"><path d="M4 5h16"/><path d="M12 5v14"/><path d="M9 19h6"/></symbol>
  <symbol id="i-circle" viewBox="0 0 24 24" fill="none" stroke="currentColor" stroke-width="1.75" stroke-linecap="round" stroke-linejoin="round"><circle cx="12" cy="12" r="9"/></symbol>
  <symbol id="i-square" viewBox="0 0 24 24" fill="none" stroke="currentColor" stroke-width="1.75" stroke-linecap="round" stroke-linejoin="round"><rect x="4" y="4" width="16" height="16" rx="2"/></symbol>
  <symbol id="i-grid" viewBox="0 0 24 24" fill="none" stroke="currentColor" stroke-width="1.75" stroke-linecap="round" stroke-linejoin="round"><rect x="4" y="4" width="7" height="7" rx="1"/><rect x="13" y="4" width="7" height="7" rx="1"/><rect x="4" y="13" width="7" height="7" rx="1"/><rect x="13" y="13" width="7" height="7" rx="1"/></symbol>
  <symbol id="i-scale" viewBox="0 0 24 24" fill="none" stroke="currentColor" stroke-width="1.75" stroke-linecap="round" stroke-linejoin="round"><path d="M4 6h6"/><path d="M14 6h6"/><path d="M7 6v3l-3 5h6Z"/><path d="M17 6v3l-3 5h6Z"/><path d="M12 4v16"/><path d="M8 20h8"/></symbol>
  <symbol id="i-spark" viewBox="0 0 24 24" fill="none" stroke="currentColor" stroke-width="1.75" stroke-linecap="round" stroke-linejoin="round"><path d="M12 3 9 10l-6 1 4.5 4-1 6 5.5-3 5.5 3-1-6L21 11l-6-1Z"/></symbol>
  <symbol id="i-mic" viewBox="0 0 24 24" fill="none" stroke="currentColor" stroke-width="1.75" stroke-linecap="round" stroke-linejoin="round"><rect x="9" y="3" width="6" height="12" rx="3"/><path d="M5 11a7 7 0 0 0 14 0"/><path d="M12 18v3"/></symbol>
  <symbol id="i-rocket" viewBox="0 0 24 24" fill="none" stroke="currentColor" stroke-width="1.75" stroke-linecap="round" stroke-linejoin="round"><path d="M5 14c-1 3-1 6-1 6s3 0 6-1"/><path d="M14.5 14 9 8.5 13 4l8 8-5 4Z"/><circle cx="15" cy="9" r="1.5"/><path d="m5.5 18.5 3-3"/></symbol>
  <symbol id="i-target" viewBox="0 0 24 24" fill="none" stroke="currentColor" stroke-width="1.75" stroke-linecap="round" stroke-linejoin="round"><circle cx="12" cy="12" r="9"/><circle cx="12" cy="12" r="5"/><circle cx="12" cy="12" r="1.5"/></symbol>
  <symbol id="i-book" viewBox="0 0 24 24" fill="none" stroke="currentColor" stroke-width="1.75" stroke-linecap="round" stroke-linejoin="round"><path d="M4 5a2 2 0 0 1 2-2h14v18H6a2 2 0 0 1-2-2Z"/><path d="M8 7h8"/><path d="M8 11h8"/></symbol>
</svg>
